<svg aria-hidden="true" xmlns="http://www.w3.org/2000/svg" xmlns:xlink="http://www.w3.org/1999/xlink"><symbol viewBox="0 0 24 24" fill="none" id="calendar" xmlns="http://www.w3.org/2000/svg">
<path d="M19 4H5C3.89543 4 3 4.89543 3 6V20C3 21.1046 3.89543 22 5 22H19C20.1046 22 21 21.1046 21 20V6C21 4.89543 20.1046 4 19 4Z" stroke="currentColor" stroke-width="2" stroke-linecap="round" stroke-linejoin="round"/>
<path d="M15 14L11.875 18L10 16.1176" stroke="currentColor" stroke-width="2" stroke-linecap="round" stroke-linejoin="round"/>
<path d="M16 2V6" stroke="currentColor" stroke-width="2" stroke-linecap="round" stroke-linejoin="round"/>
<path d="M8 2V6" stroke="currentColor" stroke-width="2" stroke-linecap="round" stroke-linejoin="round"/>
<path d="M3 10H21" stroke="currentColor" stroke-width="2" stroke-linecap="round" stroke-linejoin="round"/>
</symbol><symbol viewBox="0 0 19 13" fill="none" id="check" xmlns="http://www.w3.org/2000/svg">
<path d="M17.5 1L6.5 12L1.5 7" stroke="currentColor" stroke-width="2" stroke-linecap="round" stroke-linejoin="round"/>
</symbol><symbol viewBox="0 0 24 24" fill="none" id="clock" xmlns="http://www.w3.org/2000/svg">
<path d="M12 22C17.5228 22 22 17.5228 22 12C22 6.47715 17.5228 2 12 2C6.47715 2 2 6.47715 2 12C2 17.5228 6.47715 22 12 22Z" stroke="currentColor" stroke-width="2" stroke-linecap="round" stroke-linejoin="round"/>
<path d="M12 6V12L16 14" stroke="currentColor" stroke-width="2" stroke-linecap="round" stroke-linejoin="round"/>
</symbol><symbol viewBox="0 0 24 24" fill="none" id="guarantee" xmlns="http://www.w3.org/2000/svg">
<path d="M10.5752 2.94625C11.3586 2.15104 12.6414 2.15104 13.4248 2.94625L14.4681 4.00535C14.8477 4.39062 15.367 4.60576 15.9078 4.60171L17.3945 4.59058C18.5108 4.58222 19.4178 5.48924 19.4094 6.60549L19.3983 8.09215C19.3942 8.63295 19.6094 9.15234 19.9947 9.53188L21.0537 10.5752C21.849 11.3586 21.849 12.6414 21.0537 13.4248L19.9947 14.4681C19.6094 14.8477 19.3942 15.367 19.3983 15.9078L19.4094 17.3945C19.4178 18.5108 18.5108 19.4178 17.3945 19.4094L15.9078 19.3983C15.367 19.3942 14.8477 19.6094 14.4681 19.9947L13.4248 21.0537C12.6414 21.849 11.3586 21.849 10.5752 21.0537L9.53188 19.9947C9.15234 19.6094 8.63295 19.3942 8.09215 19.3983L6.60549 19.4094C5.48924 19.4178 4.58222 18.5108 4.59058 17.3945L4.60171 15.9078C4.60576 15.367 4.39062 14.8477 4.00535 14.4681L2.94625 13.4248C2.15104 12.6414 2.15104 11.3586 2.94625 10.5752L4.00535 9.53188C4.39062 9.15234 4.60576 8.63295 4.60171 8.09215L4.59058 6.60549C4.58222 5.48924 5.48924 4.58222 6.60549 4.59058L8.09215 4.60171C8.63295 4.60576 9.15234 4.39062 9.53188 4.00535L10.5752 2.94625Z" stroke="currentColor" stroke-width="2"/>
<path d="M16 10L11.625 14L9 12.1176" stroke="currentColor" stroke-width="2" stroke-linecap="round" stroke-linejoin="round"/>
</symbol><symbol viewBox="0 0 24 24" fill="none" id="map-pin" xmlns="http://www.w3.org/2000/svg">
<path d="M21 10C21 15.1225 16.1804 19.7095 13.595 21.8016C12.6535 22.5634 11.3464 22.5634 10.405 21.8016C7.81961 19.7095 3 15.1225 3 10C3 7.61305 3.94821 5.32387 5.63604 3.63604C7.32387 1.94821 9.61305 1 12 1C14.3869 1 16.6761 1.94821 18.364 3.63604C20.0518 5.32387 21 7.61305 21 10Z" stroke="currentColor" stroke-width="2" stroke-linecap="round" stroke-linejoin="round"/>
<path d="M12 13C13.6569 13 15 11.6569 15 10C15 8.34315 13.6569 7 12 7C10.3431 7 9 8.34315 9 10C9 11.6569 10.3431 13 12 13Z" stroke="currentColor" stroke-width="2" stroke-linecap="round" stroke-linejoin="round"/>
</symbol><symbol viewBox="0 0 21 20" fill="none" id="phone" xmlns="http://www.w3.org/2000/svg">
<path d="M20.4999 14.9201V17.9201C20.5011 18.1986 20.444 18.4743 20.3325 18.7294C20.2209 18.9846 20.0572 19.2137 19.852 19.402C19.6468 19.5902 19.4045 19.7336 19.1407 19.8228C18.8769 19.912 18.5973 19.9452 18.3199 19.9201C15.2428 19.5857 12.2869 18.5342 9.68994 16.8501C7.27376 15.3148 5.22527 13.2663 3.68993 10.8501C1.99991 8.2413 0.948176 5.27109 0.619933 2.1801C0.594944 1.90356 0.627808 1.62486 0.716434 1.36172C0.805059 1.09859 0.947504 0.856786 1.1347 0.651718C1.32189 0.44665 1.54974 0.282806 1.80372 0.170619C2.05771 0.0584315 2.33227 0.000358432 2.60993 9.69523e-05H5.60994C6.09524 -0.00467949 6.56573 0.167176 6.9337 0.48363C7.30167 0.800084 7.54201 1.23954 7.60994 1.7201C7.73656 2.68016 7.97139 3.62282 8.30994 4.5301C8.44448 4.88802 8.4736 5.27701 8.39384 5.65098C8.31409 6.02494 8.1288 6.36821 7.85994 6.6401L6.58994 7.9101C8.01349 10.4136 10.0864 12.4865 12.5899 13.9101L13.8599 12.6401C14.1318 12.3712 14.4751 12.1859 14.8491 12.1062C15.223 12.0264 15.612 12.0556 15.9699 12.1901C16.8772 12.5286 17.8199 12.7635 18.7799 12.8901C19.2657 12.9586 19.7093 13.2033 20.0265 13.5776C20.3436 13.9519 20.5121 14.4297 20.4999 14.9201Z" fill="currentColor"/>
</symbol></svg>