<svg width="20" height="20" viewBox="0 0 20 20" fill="none" xmlns="http://www.w3.org/2000/svg">
<path d="M15 0H5C2.23858 0 0 2.23858 0 5V15C0 17.7614 2.23858 20 5 20H15C17.7614 20 20 17.7614 20 15V5C20 2.23858 17.7614 0 15 0Z" fill="white"/>
<path d="M13.9997 9.3703C14.1231 10.2025 13.981 11.0525 13.5935 11.7993C13.206 12.5461 12.5929 13.1517 11.8413 13.53C11.0898 13.9082 10.2382 14.0399 9.40749 13.9062C8.57683 13.7726 7.80947 13.3804 7.21455 12.7855C6.61962 12.1905 6.22744 11.4232 6.09377 10.5925C5.96011 9.76185 6.09177 8.9102 6.47003 8.15868C6.84829 7.40716 7.45389 6.79404 8.20069 6.40654C8.94749 6.01904 9.79746 5.87689 10.6297 6.0003C11.4786 6.12619 12.2646 6.52176 12.8714 7.12861C13.4782 7.73545 13.8738 8.52138 13.9997 9.3703Z" stroke="#15B2F5" stroke-width="2" stroke-linecap="round" stroke-linejoin="round"/>
<path d="M15.5 4.5H15.51" stroke="#15B2F5" stroke-width="2" stroke-linecap="round" stroke-linejoin="round"/>
</svg>
